<?xml version="1.0" encoding="utf-8"?>
<!-- Generator: Adobe Illustrator 21.1.0, SVG Export Plug-In . SVG Version: 6.00 Build 0)  -->
<svg version="1.1" id="Слой_1" xmlns="http://www.w3.org/2000/svg" xmlns:xlink="http://www.w3.org/1999/xlink" x="0px" y="0px"
	 viewBox="0 0 60 11" style="enable-background:new 0 0 60 11;" xml:space="preserve">
<style type="text/css">
	.st0{fill:#FFFFFF;stroke:#000000;stroke-width:0.5;stroke-miterlimit:10;}
</style>
<path class="st0" d="M5.8,0.6l1.8,3.1l3.6,0.7L8.7,7l0.4,3.6L5.8,9.1l-3.3,1.5L3,7L0.5,4.4l3.6-0.7L5.8,0.6z"/>
<path class="st0" d="M17.9,0.6l1.8,3.1l3.6,0.7L20.8,7l0.4,3.6l-3.3-1.5l-3.3,1.5L15.1,7l-2.5-2.6l3.6-0.7L17.9,0.6z"/>
<path class="st0" d="M29.9,0.6l1.8,3.1l3.6,0.7L32.8,7l0.4,3.6l-3.3-1.5l-3.3,1.5L27.1,7l-2.5-2.6l3.6-0.7L29.9,0.6z"/>
<path class="st0" d="M42,0.6l1.8,3.1l3.6,0.7L44.9,7l0.4,3.6L42,9.1l-3.3,1.5L39.2,7l-2.5-2.6l3.6-0.7L42,0.6z"/>
<path class="st0" d="M54.1,0.6l1.8,3.1l3.6,0.7L57,7l0.4,3.6l-3.3-1.5l-3.3,1.5L51.3,7l-2.5-2.6l3.6-0.7L54.1,0.6z"/>
</svg>
